<svg xmlns="http://www.w3.org/2000/svg" xmlns:svg="http://www.w3.org/2000/svg" id="svg3730" width="744.094" height="1052.362" version="1.1"><metadata id="metadata3735"/><g id="layer1"><g id="layer1-7" transform="translate(-291.24103,-459.34789)"><path id="path15915-7" d="m 335.70355,505.33682 0,93.26703 6.27005,6.27 37.62031,-0.7837 4.70254,-6.2701 0,-93.26699 -5.4863,-3.91878 -36.83655,-0.78376 z" style="fill:#4d4d4d;stroke:#000;stroke-width:1px;stroke-linecap:butt;stroke-linejoin:miter;stroke-opacity:1"/><path id="path15917-6" d="m 358.43249,499.85052 0,39.97158 3.91878,-0.78376 0,-38.40406 z" style="fill:#333;stroke:#000;stroke-width:0;stroke-linecap:butt;stroke-linejoin:miter;stroke-miterlimit:4;stroke-opacity:1;stroke-dasharray:none"/><path id="path15919-76" d="m 142.64366,694.40814 a 14.499493,14.891372 0 1 1 -28.99899,0 14.499493,14.891372 0 1 1 28.99899,0 z" style="fill:#333;fill-opacity:1;stroke:none" transform="translate(231.46396,-140.47841)"/><path id="path15921-7" d="m 136.3736,694.40814 a 7.4456854,7.8375635 0 1 1 -14.89137,0 7.4456854,7.8375635 0 1 1 14.89137,0 z" transform="translate(230.6802,-141.26216)" style="fill:gray;stroke:none"/><text id="text15923-0" x="318.144" y="622.985" transform="scale(1.1139073,0.89774078)" style="font-size:25.46765137px;font-style:normal;font-variant:normal;font-weight:700;font-stretch:normal;line-height:125%;letter-spacing:0;word-spacing:0;fill:#000;fill-opacity:1;stroke:none;font-family:Arial;-inkscape-font-specification:Sans Bold" xml:space="preserve"><tspan id="tspan15925-1" x="318.144" y="622.985">-</tspan></text></g><g id="layer1-6" transform="translate(-185.46503,-265.39881)"><path id="path16421-3" d="m 259.22707,517.6897 3.10255,-22.23493 -1.55128,-3.61964 -3.61963,-3.61964 -3.61964,-1.03418 -4.65383,0.51709 -3.10254,2.58546 -2.06837,3.61964 c -1.0047,2.27199 0.57219,5.44622 1.03418,7.23927 l 4.13673,17.06402 1.55128,2.58546 1.55127,1.03418 1.03418,0.51709 3.61964,-0.51709 2.06837,-2.06836 z" style="fill:none;stroke:none"/><path id="path16421" d="m 248.72095,516.13843 -3.10255,22.23493 1.55128,3.61964 3.61963,3.61964 3.61964,1.03418 4.65383,-0.51709 3.10254,-2.58546 2.06837,-3.61964 c 1.0047,-2.27199 -0.57219,-5.44622 -1.03418,-7.23927 l -4.13673,-17.06402 -1.55128,-2.58546 -1.55127,-1.03418 -1.03418,-0.51709 -3.61964,0.51709 -2.06837,2.06836 z" style="fill:#fff;stroke:#000;stroke-width:1px;stroke-linecap:butt;stroke-linejoin:miter;stroke-opacity:1"/></g><g id="layer1-0" transform="translate(107.39397,-844.1227)"><path id="path15977" d="m 75.33415,882.52273 -21.161414,0 -6.27005,4.70254 1.56751,119.13093 6.27005,4.7026 51.727924,0 4.70254,-7.0538 0.78375,-115.99598 -6.27005,-4.70253 -18.81015,-1e-5 0,32.13402 -2.35127,2.35126 -6.27005,0.78376 -3.91879,-3.13502 z" style="fill:#333;stroke:#000;stroke-width:1px;stroke-linecap:butt;stroke-linejoin:miter;stroke-opacity:1"/><path id="path15981" d="m 916.99495,596.04669 c 0,11.4707 -9.29885,20.76954 -20.76955,20.76954 -11.4707,0 -20.76954,-9.29884 -20.76954,-20.76954 0,-11.4707 9.29884,-20.76954 20.76954,-20.76954 11.4707,0 20.76955,9.29884 20.76955,20.76954 z" transform="translate(-815.01305,352.70344)" style="fill:#fff;fill-opacity:1;stroke:none"/><path id="path15983" d="m 911.50865,595.26294 c 0,8.87356 -6.49165,16.067 -14.49949,16.067 -8.00785,0 -14.4995,-7.19344 -14.4995,-16.067 0,-8.87356 6.49165,-16.06701 14.4995,-16.06701 8.00784,0 14.49949,7.19345 14.49949,16.06701 z" transform="matrix(1,0,0,0.95121951,-815.79681,382.52441)" style="fill:#333;fill-opacity:1;stroke:none"/></g><path style="fill:#b3b3b3;fill-opacity:1;stroke:#000;stroke-width:1.05433404px;stroke-linecap:butt;stroke-linejoin:miter;stroke-opacity:1" id="path6376-8-31-0" d="m 132.33047,232.00172 0,35.77861 2.52001,3.25261 6.298,1.6263 8.81699,1.0842 71.798,-0.54211 8.818,-0.54209 5.038,-2.16841 1.26,-2.7105 0,-3.7947 0,-33.06811 -3.779,-3.79471 -6.298,-1.0842 -7.558,-0.5421 -74.31699,0.5421 -6.29901,1.0842 -3.77799,2.16841 z"/><text xml:space="preserve" style="font-size:36px;font-style:normal;font-variant:normal;font-weight:400;font-stretch:normal;line-height:125%;letter-spacing:0;word-spacing:0;fill:#000;fill-opacity:1;stroke:none;font-family:Arial;-inkscape-font-specification:Arial" id="text3423-2" x="135.408" y="262.875"><tspan id="tspan3425-9" x="135.408" y="262.875">ZERO</tspan></text><path style="fill:#b3b3b3;fill-opacity:1;stroke:#000;stroke-width:1px;stroke-linecap:butt;stroke-linejoin:miter;stroke-opacity:1" id="path6376-8-6-1" d="m 269.27547,73.035 0,51.72791 1.568,4.70254 3.919,2.35127 5.486,1.56751 44.674,-0.78376 5.486,-0.78375 3.135,-3.13503 0.784,-3.91878 0,-5.48629 0,-47.80913 -2.351,-5.486301 -3.919,-1.567509 -4.702,-0.783761 -46.242,0.783761 -3.919,1.567509 -2.351,3.13503 z"/><path style="fill:#b3b3b3;fill-opacity:1;stroke:#000;stroke-width:1px;stroke-linecap:butt;stroke-linejoin:miter;stroke-opacity:1" id="path6376-8-9-7" d="m 356.27247,72.25124 0,51.72791 1.568,4.70254 3.919,2.35127 5.486,1.56751 44.674,-0.78376 5.486,-0.78375 3.135,-3.13503 0.784,-3.91878 0,-5.48629 0,-47.80913 -2.351,-5.486301 -3.919,-1.56751 -4.702,-0.78376 -46.242,0.78376 -3.919,1.56751 -2.351,3.13503 z"/><path style="fill:#b3b3b3;fill-opacity:1;stroke:#000;stroke-width:1px;stroke-linecap:butt;stroke-linejoin:miter;stroke-opacity:1" id="path6376-8-97-0" d="m 442.48647,72.25124 0,51.72791 1.567,4.70254 3.919,2.35127 5.486,1.56751 44.674,-0.78376 5.487,-0.78375 3.135,-3.13503 0.783,-3.91878 0,-5.48629 0,-47.80913 -2.351,-5.486301 -3.919,-1.56751 -4.702,-0.78376 -46.242,0.78376 -3.919,1.56751 -2.351,3.13503 z"/><path style="fill:#b3b3b3;fill-opacity:1;stroke:#000;stroke-width:1px;stroke-linecap:butt;stroke-linejoin:miter;stroke-opacity:1" id="path6376-8-2-4" d="m 269.27547,156.89692 0,51.72792 1.568,4.70254 3.919,2.35127 5.486,1.56751 44.674,-0.78376 5.486,-0.78375 3.135,-3.13503 0.784,-3.91878 0,-5.4863 0,-47.80913 -2.351,-5.4863 -3.919,-1.56751 -4.702,-0.78376 -46.242,0.78376 -3.919,1.56751 -2.351,3.13503 z"/><path style="fill:#b3b3b3;fill-opacity:1;stroke:#000;stroke-width:1px;stroke-linecap:butt;stroke-linejoin:miter;stroke-opacity:1" id="path6376-8-8-0" d="m 440.13447,156.11316 0,51.72792 1.568,4.70254 3.919,2.35127 5.486,1.56751 44.674,-0.78376 5.486,-0.78375 3.135,-3.13503 0.784,-3.91878 0,-5.4863 0,-47.80913 -2.351,-5.4863 -3.919,-1.56751 -4.702,-0.78376 -46.242,0.78376 -3.919,1.56751 -2.351,3.13503 z"/><path style="fill:#b3b3b3;fill-opacity:1;stroke:#000;stroke-width:1px;stroke-linecap:butt;stroke-linejoin:miter;stroke-opacity:1" id="path6376-8-4-8" d="m 270.05947,239.97509 0,51.72792 1.568,4.70254 3.919,2.35127 5.486,1.56751 44.674,-0.78376 5.486,-0.78375 3.135,-3.13503 0.784,-3.91878 0,-5.4863 0,-47.80913 -2.351,-5.4863 -3.919,-1.56751 -4.703,-0.78376 -46.241,0.78376 -3.919,1.56751 -2.351,3.13503 z"/><path style="fill:#b3b3b3;fill-opacity:1;stroke:#000;stroke-width:1px;stroke-linecap:butt;stroke-linejoin:miter;stroke-opacity:1" id="path6376-8-23-5" d="m 442.48647,239.97509 0,51.72792 1.567,4.70254 3.919,2.35127 5.486,1.56751 44.674,-0.78376 5.487,-0.78375 3.135,-3.13503 0.783,-3.91878 0,-5.4863 0,-47.80913 -2.351,-5.4863 -3.919,-1.56751 -4.702,-0.78376 -46.242,0.78376 -3.919,1.56751 -2.351,3.13503 z"/><text xml:space="preserve" style="font-size:58.74946213px;font-style:normal;font-variant:normal;font-weight:700;font-stretch:normal;line-height:125%;letter-spacing:0;word-spacing:0;fill:#000;fill-opacity:1;stroke:none;font-family:UmePlus P Gothic;-inkscape-font-specification:Sans Bold" id="text3385-1" x="229.1" y="142.468" transform="scale(1.2239471,0.81702877)"><tspan id="tspan3387-6" x="229.1" y="142.468">7</tspan></text><text xml:space="preserve" style="font-size:56.41680908px;font-style:normal;font-variant:normal;font-weight:700;font-stretch:normal;line-height:125%;letter-spacing:0;word-spacing:0;fill:#000;fill-opacity:1;stroke:none;font-family:UmePlus P Gothic;-inkscape-font-specification:Sans Bold" id="text3389-6" x="314.276" y="134.047" transform="scale(1.1753501,0.85081032)"><tspan id="tspan3391-2" x="314.276" y="134.047">8</tspan></text><text xml:space="preserve" style="font-size:55.21892548px;font-style:normal;font-variant:normal;font-weight:700;font-stretch:normal;line-height:125%;letter-spacing:0;word-spacing:0;fill:#000;fill-opacity:1;stroke:none;font-family:UmePlus P Gothic;-inkscape-font-specification:Sans Bold" id="text3393-1" x="395.629" y="132.103" transform="scale(1.1503942,0.86926724)"><tspan id="tspan3395-9" x="395.629" y="132.103">9</tspan></text><text xml:space="preserve" style="font-size:36px;font-style:normal;font-variant:normal;font-weight:700;font-stretch:normal;line-height:125%;letter-spacing:0;word-spacing:0;fill:#000;fill-opacity:1;stroke:none;font-family:Arial;-inkscape-font-specification:Sans Bold" id="text5907-6" x="464.297" y="69.475"><tspan id="tspan5909-4" x="464.297" y="69.475">_</tspan></text><text xml:space="preserve" style="font-size:53.4910965px;font-style:normal;font-variant:normal;font-weight:700;font-stretch:normal;line-height:125%;letter-spacing:0;word-spacing:0;fill:#000;fill-opacity:1;stroke:none;font-family:UmePlus P Gothic;-inkscape-font-specification:Sans Bold" id="text3399-8" x="255.565" y="223.172" transform="scale(1.1143979,0.89734556)"><tspan id="tspan3401-0" x="255.565" y="223.172">4</tspan></text><text xml:space="preserve" style="font-size:59.77603912px;font-style:normal;font-variant:normal;font-weight:700;font-stretch:normal;line-height:125%;letter-spacing:0;word-spacing:0;fill:#000;fill-opacity:1;stroke:none;font-family:UmePlus P Gothic;-inkscape-font-specification:Sans Bold" id="text3407-8" x="361.599" y="245.489" transform="scale(1.2453342,0.8029973)"><tspan id="tspan3409-1" x="361.599" y="245.489">6</tspan></text><text xml:space="preserve" style="font-size:48px;font-style:normal;font-variant:normal;font-weight:700;font-stretch:normal;line-height:125%;letter-spacing:0;word-spacing:0;fill:#000;fill-opacity:1;stroke:none;font-family:UmePlus P Gothic;-inkscape-font-specification:Sans Bold" id="text3411-0" x="290.83" y="282.557"><tspan id="tspan3413-2" x="290.83" y="282.557">1</tspan></text><text xml:space="preserve" style="font-size:58.49666977px;font-style:normal;font-variant:normal;font-weight:700;font-stretch:normal;line-height:125%;letter-spacing:0;word-spacing:0;fill:#000;fill-opacity:1;stroke:none;font-family:UmePlus P Gothic;-inkscape-font-specification:Sans Bold" id="text3419-2" x="371.968" y="342.15" transform="scale(1.2186806,0.82055954)"><tspan id="tspan3421-9" x="371.968" y="342.15">3</tspan></text><path style="fill:#b3b3b3;fill-opacity:1;stroke:#000;stroke-width:1px;stroke-linecap:butt;stroke-linejoin:miter;stroke-opacity:1" id="path6376-8-3-6" d="m 356.27247,156.11316 0,51.72792 1.568,4.70254 3.919,2.35127 5.486,1.56751 44.674,-0.78376 5.486,-0.78375 3.135,-3.13503 0.784,-3.91878 0,-5.4863 0,-47.80913 -2.351,-5.4863 -3.919,-1.56751 -4.702,-0.78376 -46.242,0.78376 -3.919,1.56751 -2.351,3.13503 z"/><path style="fill:#b3b3b3;fill-opacity:1;stroke:#000;stroke-width:1px;stroke-linecap:butt;stroke-linejoin:miter;stroke-opacity:1" id="path6376-8-42-4" d="m 359.40747,239.97509 0,51.72792 1.568,4.70254 3.919,2.35127 5.486,1.56751 44.674,-0.78376 5.486,-0.78375 3.135,-3.13503 0.784,-3.91878 0,-5.4863 0,-47.80913 -2.351,-5.4863 -3.919,-1.56751 -4.702,-0.78376 -46.242,0.78376 -3.919,1.56751 -2.351,3.13503 z"/><text xml:space="preserve" style="font-size:55.44784546px;font-style:normal;font-variant:normal;font-weight:700;font-stretch:normal;line-height:125%;letter-spacing:0;word-spacing:0;fill:#000;fill-opacity:1;stroke:none;font-family:UmePlus P Gothic;-inkscape-font-specification:Sans Bold" id="text3415-6" x="323.209" y="323.954" transform="scale(1.1551635,0.86567832)"><tspan id="tspan3417-3" x="323.209" y="323.954">2</tspan></text><text xml:space="preserve" style="font-size:62.0908165px;font-style:normal;font-variant:normal;font-weight:700;font-stretch:normal;line-height:125%;letter-spacing:0;word-spacing:0;fill:#000;fill-opacity:1;stroke:none;font-family:UmePlus P Gothic;-inkscape-font-specification:Sans Bold" id="text3403-7" x="281.009" y="256.72" transform="scale(1.2935587,0.77306117)"><tspan id="tspan3405-9" x="281.009" y="256.72">5</tspan></text><path style="fill:#b3b3b3;fill-opacity:1;stroke:none" id="path6323" d="m 634.84265,429.1066 a 23.51269,24.688324 0 1 1 -47.02538,0 23.51269,24.688324 0 1 1 47.02538,0 z" transform="matrix(0.9,0,0,0.82539683,-175.93721,28.01684)"/><path style="fill:#b3b3b3;fill-opacity:1;stroke:none" id="path6323-9" d="m 634.84265,429.1066 a 23.51269,24.688324 0 1 1 -47.02538,0 23.51269,24.688324 0 1 1 47.02538,0 z" transform="matrix(0.9,0,0,0.82539683,-93.497354,26.104681)"/><path style="fill:#b3b3b3;fill-opacity:1;stroke:none" id="path4169" d="m 1629.1313,618.34607 a 20.013899,21.348158 0 1 1 -40.0278,0 20.013899,21.348158 0 1 1 40.0278,0 z" transform="matrix(1.0666666,0,0,0.96875,-1146.3918,-219.66057)"/><path style="fill:none;stroke:#fff;stroke-width:1.91833258;stroke-miterlimit:4;stroke-opacity:1;stroke-dasharray:none" id="path4171" d="m 1625.1286,617.67896 a 17.345379,15.343988 0 1 1 -34.6908,0 17.345379,15.343988 0 1 1 34.6908,0 z" transform="matrix(1,0,0,1.0869565,-1037.783,-292.02797)"/><text xml:space="preserve" style="font-size:13px;font-style:normal;font-variant:normal;font-weight:700;font-stretch:normal;line-height:125%;letter-spacing:0;word-spacing:0;fill:#fff;fill-opacity:1;stroke:none;font-family:Arial;-inkscape-font-specification:Arial Bold" id="text4173" x="556.658" y="384.032"><tspan id="tspan4175" x="556.658" y="384.032">SET</tspan></text><path style="fill:#b3b3b3;fill-opacity:1;stroke:#000;stroke-width:1px;stroke-linecap:butt;stroke-linejoin:miter;stroke-opacity:1" id="path6376-44" d="m 54.97411,347.5564 0,51.72792 1.56751,4.70254 3.91879,2.35127 5.12794,1.02405 44,0 6.51876,-1.02405 3.13502,-3.13503 0.78376,-3.91878 0,-5.4863 0,-47.80913 -2.35127,-5.4863 -3.91878,-1.56751 -5.16749,-0.5729 -45,0 -4.69546,2.14041 -2.35127,3.13503 z"/><text xml:space="preserve" style="font-size:16px;font-style:normal;font-variant:normal;font-weight:700;font-stretch:normal;text-align:start;line-height:125%;letter-spacing:0;word-spacing:0;writing-mode:lr-tb;text-anchor:start;fill:#000;fill-opacity:1;stroke:none;font-family:Arial;-inkscape-font-specification:Arial Bold" id="text3427-1" x="64.588" y="370.362"><tspan id="tspan3429-8" x="64.588" y="370.362">READ</tspan></text><text xml:space="preserve" style="font-size:16px;font-style:normal;font-variant:normal;font-weight:700;font-stretch:normal;text-align:start;line-height:125%;letter-spacing:0;word-spacing:0;writing-mode:lr-tb;text-anchor:start;fill:#000;fill-opacity:1;stroke:none;font-family:Arial;-inkscape-font-specification:Arial Bold" id="text3431-6" x="70.588" y="388.362"><tspan id="tspan3433-3" x="70.588" y="388.362">OUT</tspan></text><path style="fill:#b3b3b3;fill-opacity:1;stroke:#000;stroke-width:1px;stroke-linecap:butt;stroke-linejoin:miter;stroke-opacity:1" id="path6376-8-1" d="m 134.97563,346.66452 0,51.72792 1.56752,4.70254 3.91879,2.35127 5.38784,1.41593 45,0 5.25885,-1.41593 3.13502,-3.13503 0.78377,-3.91878 0,-5.4863 0,-47.80913 -2.17764,-4.23483 -4.09242,-2.81898 -5.90758,-0.18102 -45,0 -3.95537,1.74853 -2.35127,3.13503 z"/><path style="fill:#b3b3b3;fill-opacity:1;stroke:#000;stroke-width:1px;stroke-linecap:butt;stroke-linejoin:miter;stroke-opacity:1" id="path6376-4-2" d="m 221.97258,346.66452 0,51.72792 1.56751,4.70254 3.91879,2.35127 5.3909,1.41593 44,0 6.25581,-1.41593 3.13502,-3.13503 0.78375,-3.91878 0,-5.4863 0,-47.80913 -2.17458,-3.23483 -4,-3 -5,-1 -45,0 -4.95842,1.74853 -2.35127,3.13503 z"/><text xml:space="preserve" style="font-size:16px;font-style:normal;font-variant:normal;font-weight:700;font-stretch:normal;line-height:125%;letter-spacing:0;word-spacing:0;fill:#000;fill-opacity:1;stroke:none;font-family:Arial;-inkscape-font-specification:Sans Bold" id="text3435-2" x="139.591" y="377.863"><tspan id="tspan3437-0" x="139.591" y="377.863">CLEAR</tspan></text><text xml:space="preserve" style="font-size:16px;font-style:normal;font-variant:normal;font-weight:700;font-stretch:normal;line-height:125%;letter-spacing:0;word-spacing:0;fill:#000;fill-opacity:1;stroke:none;font-family:Arial;-inkscape-font-specification:Sans Bold" id="text3439-8" x="226.039" y="377.079"><tspan id="tspan3441-1" x="226.039" y="377.079">ENTER</tspan></text><rect style="fill:#000;fill-opacity:1;stroke:none" id="rect5543" width="34" height="52" x="67.5" y="477.362"/><rect style="fill:#000;fill-opacity:1;stroke:none" id="rect5543-0" width="34" height="52" x="126" y="475.862"/><rect style="fill:#000;fill-opacity:1;stroke:none" id="rect5543-05" width="34" height="52" x="172" y="474.362"/><rect style="fill:#000;fill-opacity:1;stroke:none" id="rect5543-9" width="34" height="52" x="241" y="468.362"/><rect style="fill:#000;fill-opacity:1;stroke:none" id="rect5543-6" width="34" height="52" x="287" y="472.362"/><rect style="fill:#000;fill-opacity:1;stroke:none" id="rect5543-1" width="34" height="52" x="334.5" y="470.862"/><rect style="fill:#000;fill-opacity:1;stroke:none" id="rect5543-5" width="34" height="52" x="377" y="466.862"/><rect style="fill:#000;fill-opacity:1;stroke:none" id="rect5543-2" width="34" height="52" x="437" y="465.362"/><rect style="fill:#000;fill-opacity:1;stroke:none" id="rect5543-90" width="34" height="52" x="493" y="461.862"/><rect style="fill:#000;fill-opacity:1;stroke:none" id="rect5543-8" width="34" height="52" x="542" y="459.862"/><rect style="fill:#000;fill-opacity:1;stroke:none" id="rect5543-29" width="34" height="52" x="590" y="456.862"/><text xml:space="preserve" style="font-size:64px;font-style:normal;font-variant:normal;font-weight:400;font-stretch:normal;line-height:125%;letter-spacing:0;word-spacing:0;fill:#fff;fill-opacity:1;stroke:none;font-family:UmePlus P Gothic;-inkscape-font-specification:UmePlus P Gothic" id="text5644" x="122.5" y="524.362"><tspan id="tspan5646" x="122.5" y="524.362">0</tspan></text><text xml:space="preserve" style="font-size:64px;font-style:normal;font-variant:normal;font-weight:400;font-stretch:normal;line-height:125%;letter-spacing:0;word-spacing:0;fill:#fff;fill-opacity:1;stroke:none;font-family:UmePlus P Gothic;-inkscape-font-specification:UmePlus P Gothic;text-anchor:start;text-align:start;writing-mode:lr" id="text5648" x="170.5" y="522.862"><tspan id="tspan5650" x="170.5" y="522.862">1</tspan></text><text xml:space="preserve" style="font-size:64px;font-style:normal;font-variant:normal;font-weight:400;font-stretch:normal;line-height:125%;letter-spacing:0;word-spacing:0;fill:#fff;fill-opacity:1;stroke:none;font-family:UmePlus P Gothic;-inkscape-font-specification:Sans" id="text5652" x="238" y="516.862"><tspan id="tspan5654" x="238" y="516.862">2</tspan></text><text xml:space="preserve" style="font-size:64px;font-style:normal;font-variant:normal;font-weight:400;font-stretch:normal;line-height:125%;letter-spacing:0;word-spacing:0;fill:#fff;fill-opacity:1;stroke:none;font-family:UmePlus P Gothic;-inkscape-font-specification:Sans" id="text5656" x="284.5" y="520.362"><tspan id="tspan5658" x="284.5" y="520.362">3</tspan></text><text xml:space="preserve" style="font-size:64px;font-style:normal;font-variant:normal;font-weight:400;font-stretch:normal;line-height:125%;letter-spacing:0;word-spacing:0;fill:#fff;fill-opacity:1;stroke:none;font-family:UmePlus P Gothic;-inkscape-font-specification:Sans" id="text5660" x="332.5" y="518.862"><tspan id="tspan5662" x="332.5" y="518.862">4</tspan></text><text xml:space="preserve" style="font-size:64px;font-style:normal;font-variant:normal;font-weight:400;font-stretch:normal;line-height:125%;letter-spacing:0;word-spacing:0;fill:#fff;fill-opacity:1;stroke:none;font-family:UmePlus P Gothic;-inkscape-font-specification:Sans" id="text5664" x="373.5" y="514.862"><tspan id="tspan5666" x="373.5" y="514.862">5</tspan></text><text xml:space="preserve" style="font-size:64px;font-style:normal;font-variant:normal;font-weight:400;font-stretch:normal;line-height:125%;letter-spacing:0;word-spacing:0;fill:#fff;fill-opacity:1;stroke:none;font-family:UmePlus P Gothic;-inkscape-font-specification:Sans" id="text5668" x="433.5" y="513.862"><tspan id="tspan5670" x="433.5" y="513.862">6</tspan></text><text xml:space="preserve" style="font-size:64px;font-style:normal;font-variant:normal;font-weight:400;font-stretch:normal;line-height:125%;letter-spacing:0;word-spacing:0;fill:#fff;fill-opacity:1;stroke:none;font-family:UmePlus P Gothic;-inkscape-font-specification:Sans" id="text5672" x="489.5" y="510.362"><tspan id="tspan5674" x="489.5" y="510.362">7</tspan></text><text xml:space="preserve" style="font-size:64px;font-style:normal;font-variant:normal;font-weight:400;font-stretch:normal;line-height:125%;letter-spacing:0;word-spacing:0;fill:#fff;fill-opacity:1;stroke:none;font-family:UmePlus P Gothic;-inkscape-font-specification:Sans" id="text5676" x="539.5" y="508.362"><tspan id="tspan5678" x="539.5" y="508.362">8</tspan></text><text xml:space="preserve" style="font-size:64px;font-style:normal;font-variant:normal;font-weight:400;font-stretch:normal;line-height:125%;letter-spacing:0;word-spacing:0;fill:#fff;fill-opacity:1;stroke:none;font-family:UmePlus P Gothic;-inkscape-font-specification:Sans" id="text5680" x="586.5" y="504.862"><tspan id="tspan5682" x="586.5" y="504.862">9</tspan></text><path style="fill:#000;fill-opacity:1;stroke:none" id="path14309" d="m 107.37462,555.29138 a 14.891371,16.067005 0 1 1 -0.002,-0.2333" transform="translate(-26.483246,51.070801)"/><path style="fill:#000;fill-opacity:1;stroke:none" id="path14309-6" d="m 107.37462,555.29138 a 14.891371,16.067005 0 1 1 -0.002,-0.2333" transform="translate(21.016754,51.570801)"/><path style="fill:#000;fill-opacity:1;stroke:none" id="path14309-0" d="m 107.37462,555.29138 a 14.891371,16.067005 0 1 1 -0.002,-0.2333" transform="translate(64.016754,49.570801)"/><path style="fill:#000;fill-opacity:1;stroke:none" id="path14309-2" d="m 107.37462,555.29138 a 14.891371,16.067005 0 1 1 -0.002,-0.2333" transform="translate(107.51675,48.570801)"/><path style="fill:#000;fill-opacity:1;stroke:none" id="path14309-7" d="m 107.37462,555.29138 a 14.891371,16.067005 0 1 1 -0.002,-0.2333" transform="translate(152.51675,47.570801)"/><path style="fill:#000;fill-opacity:1;stroke:none" id="path14309-8" d="m 107.37462,555.29138 a 14.891371,16.067005 0 1 1 -0.002,-0.2333" transform="translate(197.01675,48.070801)"/><path style="fill:#000;fill-opacity:1;stroke:none" id="path14309-60" d="m 107.37462,555.29138 a 14.891371,16.067005 0 1 1 -0.002,-0.2333" transform="translate(242.51675,45.070801)"/><path style="fill:#000;fill-opacity:1;stroke:none" id="path14309-5" d="m 107.37462,555.29138 a 14.891371,16.067005 0 1 1 -0.002,-0.2333" transform="translate(294.51675,44.570801)"/><path style="fill:#000;fill-opacity:1;stroke:none" id="path14309-08" d="m 107.37462,555.29138 a 14.891371,16.067005 0 1 1 -0.002,-0.2333" transform="translate(335.51675,44.070801)"/><path style="fill:#000;fill-opacity:1;stroke:none" id="path14309-9" d="m 107.37462,555.29138 a 14.891371,16.067005 0 1 1 -0.002,-0.2333" transform="translate(393.01675,43.570801)"/><path style="fill:#000;fill-opacity:1;stroke:none" id="path14309-93" d="m 107.37462,555.29138 a 14.891371,16.067005 0 1 1 -0.002,-0.2333" transform="translate(450.01675,43.070801)"/><text xml:space="preserve" style="font-size:32px;font-style:normal;font-variant:normal;font-weight:400;font-stretch:normal;line-height:125%;letter-spacing:0;word-spacing:0;fill:#fff;fill-opacity:1;stroke:none;font-family:UmePlus P Gothic;-inkscape-font-specification:Sans" id="text5869" x="103.5" y="617.362"><tspan id="tspan5871" x="103.5" y="617.362">0</tspan></text><text xml:space="preserve" style="font-size:32px;font-style:normal;font-variant:normal;font-weight:400;font-stretch:normal;line-height:125%;letter-spacing:0;word-spacing:0;fill:#fff;fill-opacity:1;stroke:none;font-family:UmePlus P Gothic;-inkscape-font-specification:Sans" id="text5873" x="146" y="615.362"><tspan id="tspan5875" x="146" y="615.362">1</tspan></text><text xml:space="preserve" style="font-size:32px;font-style:normal;font-variant:normal;font-weight:400;font-stretch:normal;line-height:125%;letter-spacing:0;word-spacing:0;fill:#fff;fill-opacity:1;stroke:none;font-family:UmePlus P Gothic;-inkscape-font-specification:Sans" id="text5877" x="190.5" y="614.862"><tspan id="tspan5879" x="190.5" y="614.862">2</tspan></text><text xml:space="preserve" style="font-size:32px;font-style:normal;font-variant:normal;font-weight:400;font-stretch:normal;line-height:125%;letter-spacing:0;word-spacing:0;fill:#fff;fill-opacity:1;stroke:none;font-family:UmePlus P Gothic;-inkscape-font-specification:Sans" id="text5881" x="235.5" y="613.862"><tspan id="tspan5883" x="235.5" y="613.862">3</tspan></text><text xml:space="preserve" style="font-size:32px;font-style:normal;font-variant:normal;font-weight:400;font-stretch:normal;line-height:125%;letter-spacing:0;word-spacing:0;fill:#fff;fill-opacity:1;stroke:none;font-family:UmePlus P Gothic;-inkscape-font-specification:Sans" id="text5885" x="279" y="613.362"><tspan id="tspan5887" x="279" y="613.362">4</tspan></text><text xml:space="preserve" style="font-size:32px;font-style:normal;font-variant:normal;font-weight:400;font-stretch:normal;line-height:125%;letter-spacing:0;word-spacing:0;fill:#fff;fill-opacity:1;stroke:none;font-family:UmePlus P Gothic;-inkscape-font-specification:Sans" id="text5889" x="325" y="610.862"><tspan id="tspan5891" x="325" y="610.862">5</tspan></text><text xml:space="preserve" style="font-size:32px;font-style:normal;font-variant:normal;font-weight:400;font-stretch:normal;line-height:125%;letter-spacing:0;word-spacing:0;fill:#fff;fill-opacity:1;stroke:none;font-family:UmePlus P Gothic;-inkscape-font-specification:Sans" id="text5893" x="376.5" y="610.862"><tspan id="tspan5895" x="376.5" y="610.862">6</tspan></text><text xml:space="preserve" style="font-size:32px;font-style:normal;font-variant:normal;font-weight:400;font-stretch:normal;line-height:125%;letter-spacing:0;word-spacing:0;fill:#fff;fill-opacity:1;stroke:none;font-family:UmePlus P Gothic;-inkscape-font-specification:Sans" id="text5897" x="418" y="610.862"><tspan id="tspan5899" x="418" y="610.862">7</tspan></text><text xml:space="preserve" style="font-size:32px;font-style:normal;font-variant:normal;font-weight:400;font-stretch:normal;line-height:125%;letter-spacing:0;word-spacing:0;fill:#fff;fill-opacity:1;stroke:none;font-family:UmePlus P Gothic;-inkscape-font-specification:Sans" id="text5901" x="475.5" y="609.862"><tspan id="tspan5903" x="475.5" y="609.862">8</tspan></text><text xml:space="preserve" style="font-size:32px;font-style:normal;font-variant:normal;font-weight:400;font-stretch:normal;line-height:125%;letter-spacing:0;word-spacing:0;fill:#fff;fill-opacity:1;stroke:none;font-family:UmePlus P Gothic;-inkscape-font-specification:Sans" id="text5905" x="533" y="609.362"><tspan id="tspan5907" x="533" y="609.362">9</tspan></text><rect style="fill:#000;fill-opacity:1;stroke:none" id="rect5941-99" width="15" height="20" x="56.5" y="656.862"/><rect style="fill:#000;fill-opacity:1;stroke:none" id="rect5941-99-1" width="15" height="20" x="87" y="654.862"/><rect style="fill:#000;fill-opacity:1;stroke:none" id="rect5941-99-9" width="15" height="20" x="115" y="655.862"/><rect style="fill:#000;fill-opacity:1;stroke:none" id="rect5941-99-7" width="15" height="20" x="144" y="654.862"/><rect style="fill:#000;fill-opacity:1;stroke:none" id="rect5941-99-91" width="15" height="20" x="170.5" y="654.362"/><rect style="fill:#000;fill-opacity:1;stroke:none" id="rect5941-99-74" width="15" height="20" x="195.5" y="654.862"/><rect style="fill:#000;fill-opacity:1;stroke:none" id="rect5941-99-8" width="15" height="20" x="220.5" y="654.862"/><rect style="fill:#000;fill-opacity:1;stroke:none" id="rect5941-99-3" width="15" height="20" x="251.5" y="656.362"/><rect style="fill:#000;fill-opacity:1;stroke:none" id="rect5941-99-93" width="15" height="20" x="284" y="655.862"/><rect style="fill:#000;fill-opacity:1;stroke:none" id="rect5941-99-92" width="15" height="20" x="311.5" y="656.362"/><rect style="fill:#000;fill-opacity:1;stroke:none" id="rect5941-99-5" width="15" height="20" x="339" y="656.362"/><path style="fill:#fff;fill-opacity:1;stroke:#000;stroke-width:3;stroke-linecap:butt;stroke-linejoin:miter;stroke-miterlimit:4;stroke-opacity:1;stroke-dasharray:none" id="path3158" d="m 371,632.86218 0,69 76,0 0,-69 z"/><text xml:space="preserve" style="font-size:22px;font-style:normal;font-variant:normal;font-weight:700;font-stretch:normal;line-height:125%;letter-spacing:0;word-spacing:0;fill:#000;fill-opacity:1;stroke:none;font-family:Arial;-inkscape-font-specification:Sans Bold" id="text6360" x="376.666" y="675.019"><tspan id="tspan6362" x="376.666" y="675.019">COMP</tspan></text><path style="fill:#1a1a1a;fill-opacity:1;stroke:#000;stroke-width:3;stroke-linecap:butt;stroke-linejoin:miter;stroke-miterlimit:4;stroke-opacity:1;stroke-dasharray:none" id="path3158-5" d="m 466.5,634.36218 0,69 76,0 0,-69 z"/><text xml:space="preserve" style="font-size:22px;font-style:normal;font-variant:normal;font-weight:700;font-stretch:normal;line-height:125%;letter-spacing:0;word-spacing:0;fill:#000;fill-opacity:1;stroke:none;font-family:Arial;-inkscape-font-specification:Sans Bold" id="text6360-8" x="472.166" y="676.519"><tspan id="tspan6362-5" x="472.166" y="676.519">COMP</tspan></text><path style="fill:#fff;fill-opacity:1;stroke:#000;stroke-width:3;stroke-linecap:butt;stroke-linejoin:miter;stroke-miterlimit:4;stroke-opacity:1;stroke-dasharray:none" id="path3160" d="m 568.00001,625.36218 0,69 72.99998,0 0,-69 z"/><text xml:space="preserve" style="font-size:22px;font-style:normal;font-variant:normal;font-weight:700;font-stretch:normal;line-height:125%;letter-spacing:0;word-spacing:0;fill:#000;fill-opacity:1;stroke:none;font-family:Arial;-inkscape-font-specification:Sans Bold" id="text6364" x="575.439" y="665.519"><tspan id="tspan6366" x="575.439" y="665.519">MALF</tspan></text><path style="fill:#1a1a1a;fill-opacity:1;stroke:#000;stroke-width:3;stroke-linecap:butt;stroke-linejoin:miter;stroke-miterlimit:4;stroke-opacity:1;stroke-dasharray:none" id="path3160-1" d="m 656.00001,621.86218 0,69 72.99998,0 0,-69 z"/><text xml:space="preserve" style="font-size:22px;font-style:normal;font-variant:normal;font-weight:700;font-stretch:normal;line-height:125%;letter-spacing:0;word-spacing:0;fill:#000;fill-opacity:1;stroke:none;font-family:Arial;-inkscape-font-specification:Sans Bold" id="text6364-4" x="663.439" y="662.019"><tspan id="tspan6366-9" x="663.439" y="662.019">MALF</tspan></text><path id="path11404" d="m 148.9137,501.99594 a 22.728933,22.337055 0 1 1 -0.009,-0.63766" transform="translate(-56.184769,258.36624)" style="fill:#000;fill-opacity:1;stroke:none"/><path id="path11452" d="m 65.503056,744.7586 0,11 -12,0 0,8 12,0 0,0 0,12 8,0 0,-12 12,0 0,-8 -12,0 0,-11 z" style="fill:#fff;fill-opacity:1;stroke:#000;stroke-width:1px;stroke-linecap:butt;stroke-linejoin:miter;stroke-opacity:1"/><path id="path11404-2" d="m 148.9137,501.99594 a 22.728933,22.337055 0 1 1 -0.009,-0.63766" transform="translate(5.8152313,256.36624)" style="fill:#000;fill-opacity:1;stroke:none"/><path id="path11452-6" d="m 127.50306,742.7586 0,11 -12,0 0,8 12,0 0,0 0,12 8,0 0,-12 12,0 0,-8 -12,0 0,-11 z" style="fill:#333;fill-opacity:1;stroke:#000;stroke-width:1px;stroke-linecap:butt;stroke-linejoin:miter;stroke-opacity:1"/><path id="path11404-5" d="m 148.9137,501.99594 a 22.728933,22.337055 0 1 1 -3.3e-4,-0.11986" transform="translate(90.815231,255.36624)" style="fill:#000;fill-opacity:1;stroke:none"/><path id="path11454" d="m 218.50712,741.15048 -16,14 16,16 0,-9 12,0 0,-12 -12,0 z" style="fill:#fff;fill-opacity:1;stroke:#000;stroke-width:1px;stroke-linecap:butt;stroke-linejoin:miter;stroke-opacity:1"/><path id="path11404-5-6" d="m 148.9137,501.99594 a 22.728933,22.337055 0 1 1 -3.3e-4,-0.11986" transform="translate(163.81523,258.86624)" style="fill:#000;fill-opacity:1;stroke:none"/><path id="path11454-6" d="m 291.50712,744.65048 -16,14 16,16 0,-9 12,0 0,-12 -12,0 z" style="fill:#333;fill-opacity:1;stroke:#000;stroke-width:1px;stroke-linecap:butt;stroke-linejoin:miter;stroke-opacity:1"/><path id="path11404-9" d="m 148.9137,501.99594 a 22.728933,22.337055 0 1 1 -1e-4,-0.0685" transform="translate(253.81523,256.36624)" style="fill:#000;fill-opacity:1;stroke:none"/><path id="path11454-6-9" d="m 379.40153,743.71799 16,14 -16,16 0,-9 -12,0 0,-12 12,0 z" style="fill:#fff;fill-opacity:1;stroke:#000;stroke-width:1px;stroke-linecap:butt;stroke-linejoin:miter;stroke-opacity:1"/><path id="path11404-9-3" d="m 148.9137,501.99594 a 22.728933,22.337055 0 1 1 -1e-4,-0.0685" transform="translate(317.81523,254.86624)" style="fill:#000;fill-opacity:1;stroke:none"/><path id="path11454-6-4" d="m 443.40153,742.21799 16,14 -16,16 0,-9 -12,0 0,-12 12,0 z" style="fill:#333;fill-opacity:1;stroke:#000;stroke-width:1px;stroke-linecap:butt;stroke-linejoin:miter;stroke-opacity:1"/><path id="path11404-6" d="m 148.9137,501.99594 a 22.728933,22.337055 0 1 1 -4.9e-4,-0.14721" transform="translate(390.81523,255.36624)" style="fill:#000;fill-opacity:1;stroke:none"/><path id="path11454-7" d="m 531.4056,758.93423 -14,-16 -16,16 9,0 0,12 12,0 0,-12 z" style="fill:#fff;fill-opacity:1;stroke:#000;stroke-width:1px;stroke-linecap:butt;stroke-linejoin:miter;stroke-opacity:1"/><path id="path11404-6-0" d="m 148.9137,501.99594 a 22.728933,22.337055 0 1 1 -4.9e-4,-0.14721" transform="translate(459.81523,250.36624)" style="fill:#000;fill-opacity:1;stroke:none"/><path id="path11454-7-8" d="m 600.4056,753.93423 -14,-16 -16,16 9,0 0,12 12,0 0,-12 z" style="fill:#333;fill-opacity:1;stroke:#000;stroke-width:1px;stroke-linecap:butt;stroke-linejoin:miter;stroke-opacity:1"/><path id="path11404-7" d="m 148.9137,501.99594 a 22.728933,22.337055 0 1 1 -0.006,-0.49977" transform="translate(390.81523,322.86624)" style="fill:#000;fill-opacity:1;stroke:none"/><path id="path11454-75" d="m 503.4056,824.00581 14,16 16,-16 -9,0 0,-12 -12,0 0,12 z" style="fill:#fff;fill-opacity:1;stroke:#000;stroke-width:1px;stroke-linecap:butt;stroke-linejoin:miter;stroke-opacity:1"/><path id="path11404-7-3" d="m 148.9137,501.99594 a 22.728933,22.337055 0 1 1 -0.006,-0.49977" transform="translate(458.81523,319.86624)" style="fill:#000;fill-opacity:1;stroke:none"/><path id="path11454-75-4" d="m 571.4056,821.00581 14,16 16,-16 -9,0 0,-12 -12,0 0,12 z" style="fill:#333;fill-opacity:1;stroke:#000;stroke-width:1px;stroke-linecap:butt;stroke-linejoin:miter;stroke-opacity:1"/><path id="path11404-0" d="m 148.9137,501.99594 a 22.728933,22.337055 0 1 1 -0.009,-0.63766" transform="translate(-65.684769,323.36624)" style="fill:#000;fill-opacity:1;stroke:none"/><path id="path11490" d="m 250.01827,395.40509 a 6.6619291,6.6619291 0 1 1 -0.0393,-0.72228" transform="translate(-182.46447,430.34898)" style="fill:#fff;fill-opacity:1;stroke:none"/><path id="path11404-0-3" d="m 148.9137,501.99594 a 22.728933,22.337055 0 1 1 -0.009,-0.63766" transform="translate(5.8152313,323.36624)" style="fill:#000;fill-opacity:1;stroke:none"/><path id="path11490-9" d="m 250.01827,395.40509 a 6.6619291,6.6619291 0 1 1 -0.0393,-0.72228" transform="translate(-110.96447,430.34898)" style="fill:#333;fill-opacity:1;stroke:none"/><text xml:space="preserve" style="font-size:22px;font-style:normal;font-variant:normal;font-weight:400;font-stretch:normal;line-height:125%;letter-spacing:0;word-spacing:0;fill:#fff;fill-opacity:1;stroke:none;font-family:UmePlus P Gothic;-inkscape-font-specification:Sans" id="text6398" x="87.5" y="672.362"><tspan id="tspan6400" x="87.5" y="672.362">0</tspan></text><text xml:space="preserve" style="font-size:22px;font-style:normal;font-variant:normal;font-weight:400;font-stretch:normal;line-height:125%;letter-spacing:0;word-spacing:0;fill:#fff;fill-opacity:1;stroke:none;font-family:UmePlus P Gothic;-inkscape-font-specification:Sans" id="text6402" x="116" y="673.362"><tspan id="tspan6404" x="116" y="673.362">1</tspan></text><text xml:space="preserve" style="font-size:22px;font-style:normal;font-variant:normal;font-weight:400;font-stretch:normal;line-height:125%;letter-spacing:0;word-spacing:0;fill:#fff;fill-opacity:1;stroke:none;font-family:UmePlus P Gothic;-inkscape-font-specification:Sans" id="text6406" x="145" y="672.362"><tspan id="tspan6408" x="145" y="672.362">2</tspan></text><text xml:space="preserve" style="font-size:22px;font-style:normal;font-variant:normal;font-weight:400;font-stretch:normal;line-height:125%;letter-spacing:0;word-spacing:0;fill:#fff;fill-opacity:1;stroke:none;font-family:UmePlus P Gothic;-inkscape-font-specification:Sans" id="text6410" x="171" y="671.862"><tspan id="tspan6412" x="171" y="671.862">3</tspan></text><text xml:space="preserve" style="font-size:22px;font-style:normal;font-variant:normal;font-weight:400;font-stretch:normal;line-height:125%;letter-spacing:0;word-spacing:0;fill:#fff;fill-opacity:1;stroke:none;font-family:UmePlus P Gothic;-inkscape-font-specification:Sans" id="text6414" x="196.5" y="672.362"><tspan id="tspan6416" x="196.5" y="672.362">4</tspan></text><text xml:space="preserve" style="font-size:22px;font-style:normal;font-variant:normal;font-weight:400;font-stretch:normal;line-height:125%;letter-spacing:0;word-spacing:0;fill:#fff;fill-opacity:1;stroke:none;font-family:UmePlus P Gothic;-inkscape-font-specification:Sans" id="text6418" x="221" y="672.862"><tspan id="tspan6420" x="221" y="672.862">5</tspan></text><text xml:space="preserve" style="font-size:22px;font-style:normal;font-variant:normal;font-weight:400;font-stretch:normal;line-height:125%;letter-spacing:0;word-spacing:0;fill:#fff;fill-opacity:1;stroke:none;font-family:UmePlus P Gothic;-inkscape-font-specification:Sans" id="text6422" x="252" y="673.862"><tspan id="tspan6424" x="252" y="673.862">6</tspan></text><text xml:space="preserve" style="font-size:22px;font-style:normal;font-variant:normal;font-weight:400;font-stretch:normal;line-height:125%;letter-spacing:0;word-spacing:0;fill:#fff;fill-opacity:1;stroke:none;font-family:UmePlus P Gothic;-inkscape-font-specification:Sans" id="text6426" x="284.5" y="673.362"><tspan id="tspan6428" x="284.5" y="673.362">7</tspan></text><text xml:space="preserve" style="font-size:22px;font-style:normal;font-variant:normal;font-weight:400;font-stretch:normal;line-height:125%;letter-spacing:0;word-spacing:0;fill:#fff;fill-opacity:1;stroke:none;font-family:UmePlus P Gothic;-inkscape-font-specification:Sans" id="text6430" x="312.5" y="673.862"><tspan id="tspan6432" x="312.5" y="673.862">8</tspan></text><text xml:space="preserve" style="font-size:22px;font-style:normal;font-variant:normal;font-weight:400;font-stretch:normal;line-height:125%;letter-spacing:0;word-spacing:0;fill:#fff;fill-opacity:1;stroke:none;font-family:UmePlus P Gothic;-inkscape-font-specification:Sans" id="text6434" x="339.5" y="673.862"><tspan id="tspan6436" x="339.5" y="673.862">9</tspan></text></g></svg>